<svg width="111" height="100" viewBox="0 0 111 100" fill="none" xmlns="http://www.w3.org/2000/svg">
<path d="M76.0258 64.9597H74.7512V58.8182C74.7501 58.7791 74.7464 58.7402 74.7399 58.7017C74.7417 58.455 74.6535 58.2161 74.4918 58.0296L64.2608 46.3567L64.2533 46.3492C64.192 46.2831 64.1225 46.2251 64.0465 46.1765L63.9788 46.1352C63.9138 46.0991 63.8451 46.0701 63.7739 46.0488L63.7175 46.03C63.6394 46.0106 63.5592 46.0005 63.4787 46H38.33C37.1813 46 36.2488 46.9332 36.2488 48.0785V64.9578H34.9742C33.331 64.9578 32 66.2871 32 67.9281V83.3768C32 85.0159 33.3329 86.3471 34.9742 86.3471H36.2488V96.9215C36.2488 98.0669 37.1813 99 38.33 99H72.67C73.8168 99 74.7512 98.0669 74.7512 96.9215V86.3471H76.0258C77.6671 86.3471 79 85.0177 79 83.3768V67.9281C79 66.289 77.669 64.9597 76.0258 64.9597ZM38.33 48.0785H62.4372V58.713C62.4372 59.2876 62.9034 59.7513 63.4787 59.7513H72.6719V64.9578H38.33V48.0785ZM53.9001 76.5574C51.3734 75.6562 49.7058 74.2593 49.7058 72.0531C49.7058 69.464 51.8942 67.5057 55.4568 67.5057C57.1939 67.5057 58.4328 67.8436 59.3352 68.2698L58.5682 71.0167C57.5851 70.5385 56.5051 70.2925 55.4116 70.2976C53.9227 70.2976 53.2008 70.9942 53.2008 71.7602C53.2008 72.7291 54.0336 73.1553 56.0189 73.8988C58.7035 74.8901 59.9424 76.2852 59.9424 78.4256C59.9424 80.9716 58.0042 83.1327 53.8324 83.1327C52.0953 83.1327 50.3826 82.6595 49.5254 82.1864L50.2247 79.3719C51.4053 79.9739 52.7082 80.2976 54.0336 80.3182C55.6128 80.3182 56.4475 79.6629 56.4475 78.6734C56.4475 77.7272 55.7275 77.1883 53.9001 76.5574ZM35.9912 75.521C35.9912 70.3633 39.6892 67.5038 44.2877 67.5038C46.0699 67.5038 47.4216 67.8624 48.0308 68.1572L47.3088 70.8815C46.3956 70.4986 45.4134 70.3069 44.423 70.3183C41.7177 70.3183 39.599 71.9611 39.599 75.3389C39.599 78.3561 41.4019 80.2713 44.4456 80.2713C45.5059 80.2713 46.6339 80.0704 47.3314 79.7756L47.8296 82.4774C47.2205 82.7684 45.7766 83.1308 43.9512 83.1308C38.6966 83.1327 35.9912 79.845 35.9912 75.521ZM72.67 96.362H38.33V86.3489H72.67V96.362ZM69.8914 82.9074H65.8776L61.0084 67.7291H64.774L66.6221 74.1485C67.1391 75.9716 67.6128 77.684 67.9738 79.5747H68.0415C68.4259 77.7704 68.8844 75.9827 69.4158 74.2161L71.3559 67.731H75.0069L69.8914 82.9074Z" fill="#ED4C5C"/>
<path d="M52.9922 37.85C52.9922 44.15 52.3089 49.6333 50.9422 54.3C49.6089 58.9333 47.7422 62.7667 45.3422 65.8C42.9755 68.8333 40.1589 71.1 36.8922 72.6C33.6589 74.0667 30.1589 74.8 26.3922 74.8C22.6255 74.8 19.1255 74.0667 15.8922 72.6C12.6922 71.1 9.90885 68.8333 7.54219 65.8C5.17552 62.7667 3.32552 58.9333 1.99219 54.3C0.658854 49.6333 -0.00781246 44.15 -0.00781246 37.85C-0.00781246 31.5167 0.658854 26.0333 1.99219 21.4C3.32552 16.7667 5.17552 12.9333 7.54219 9.9C9.90885 6.86666 12.6922 4.61666 15.8922 3.15C19.1255 1.65 22.6255 0.899999 26.3922 0.899999C30.1589 0.899999 33.6589 1.65 36.8922 3.15C40.1589 4.61666 42.9755 6.86666 45.3422 9.9C47.7422 12.9333 49.6089 16.7667 50.9422 21.4C52.3089 26.0333 52.9922 31.5167 52.9922 37.85ZM40.2422 37.85C40.2422 32.6167 39.8589 28.2833 39.0922 24.85C38.3255 21.4167 37.2922 18.6833 35.9922 16.65C34.7255 14.6167 33.2589 13.2 31.5922 12.4C29.9255 11.5667 28.1922 11.15 26.3922 11.15C24.6255 11.15 22.9089 11.5667 21.2422 12.4C19.6089 13.2 18.1589 14.6167 16.8922 16.65C15.6255 18.6833 14.6089 21.4167 13.8422 24.85C13.1089 28.2833 12.7422 32.6167 12.7422 37.85C12.7422 43.0833 13.1089 47.4167 13.8422 50.85C14.6089 54.2833 15.6255 57.0167 16.8922 59.05C18.1589 61.0833 19.6089 62.5167 21.2422 63.35C22.9089 64.15 24.6255 64.55 26.3922 64.55C28.1922 64.55 29.9255 64.15 31.5922 63.35C33.2589 62.5167 34.7255 61.0833 35.9922 59.05C37.2922 57.0167 38.3255 54.2833 39.0922 50.85C39.8589 47.4167 40.2422 43.0833 40.2422 37.85ZM91.1 46.75V23.1C91.1 20.8667 91.25 18.4 91.55 15.7L69.1 46.75H91.1ZM110.95 46.75V53.9C110.95 54.5667 110.733 55.15 110.3 55.65C109.867 56.1167 109.25 56.35 108.45 56.35H101.85V74H91.1V56.35H60.6C59.7667 56.35 59.0333 56.1 58.4 55.6C57.7667 55.0667 57.3667 54.4167 57.2 53.65L55.9 47.4L90.15 1.65H101.85V46.75H110.95Z" fill="#101010" fill-opacity="0.08"/>
</svg>
