<svg width="108" height="114" viewBox="0 0 108 114" fill="none" xmlns="http://www.w3.org/2000/svg">
<path d="M63.75 89.1797H57.9609V70.25C57.9609 69.9063 57.6797 69.625 57.3359 69.625H52.6484C52.3047 69.625 52.0234 69.9063 52.0234 70.25V89.1797H46.25C45.7265 89.1797 45.4375 89.7813 45.7578 90.1875L54.5078 101.258C54.5663 101.333 54.641 101.393 54.7262 101.434C54.8115 101.476 54.9051 101.498 55 101.498C55.0948 101.498 55.1885 101.476 55.2737 101.434C55.359 101.393 55.4337 101.333 55.4922 101.258L64.2422 90.1875C64.5625 89.7813 64.2734 89.1797 63.75 89.1797Z" fill="#ED4C5C"/>
<path d="M78.3906 62.6484C74.8125 53.2109 65.6953 46.5 55.0156 46.5C44.3359 46.5 35.2188 53.2031 31.6406 62.6406C24.9453 64.3984 20 70.5 20 77.75C20 86.3828 26.9922 93.375 35.6172 93.375H38.75C39.0938 93.375 39.375 93.0938 39.375 92.75V88.0625C39.375 87.7188 39.0938 87.4375 38.75 87.4375H35.6172C32.9844 87.4375 30.5078 86.3906 28.6641 84.4922C26.8281 82.6016 25.8516 80.0547 25.9375 77.4141C26.0078 75.3516 26.7109 73.4141 27.9844 71.7812C29.2891 70.1172 31.1172 68.9062 33.1484 68.3672L36.1094 67.5938L37.1953 64.7344C37.8672 62.9531 38.8047 61.2891 39.9844 59.7812C41.149 58.2868 42.5286 56.973 44.0781 55.8828C47.2891 53.625 51.0703 52.4297 55.0156 52.4297C58.9609 52.4297 62.7422 53.625 65.9531 55.8828C67.5078 56.9766 68.8828 58.2891 70.0469 59.7812C71.2266 61.2891 72.1641 62.9609 72.8359 64.7344L73.9141 67.5859L76.8672 68.3672C81.1016 69.5078 84.0625 73.3594 84.0625 77.75C84.0625 80.3359 83.0547 82.7734 81.2266 84.6016C80.33 85.5033 79.2635 86.2183 78.0888 86.7051C76.914 87.1919 75.6544 87.4408 74.3828 87.4375H71.25C70.9062 87.4375 70.625 87.7188 70.625 88.0625V92.75C70.625 93.0938 70.9062 93.375 71.25 93.375H74.3828C83.0078 93.375 90 86.3828 90 77.75C90 70.5078 85.0703 64.4141 78.3906 62.6484Z" fill="#ED4C5C"/>
<path d="M52.9922 37.85C52.9922 44.15 52.3089 49.6333 50.9422 54.3C49.6089 58.9333 47.7422 62.7667 45.3422 65.8C42.9755 68.8333 40.1589 71.1 36.8922 72.6C33.6589 74.0667 30.1589 74.8 26.3922 74.8C22.6255 74.8 19.1255 74.0667 15.8922 72.6C12.6922 71.1 9.90885 68.8333 7.54219 65.8C5.17552 62.7667 3.32552 58.9333 1.99219 54.3C0.658854 49.6333 -0.00781246 44.15 -0.00781246 37.85C-0.00781246 31.5167 0.658854 26.0333 1.99219 21.4C3.32552 16.7667 5.17552 12.9333 7.54219 9.9C9.90885 6.86666 12.6922 4.61666 15.8922 3.15C19.1255 1.65 22.6255 0.899999 26.3922 0.899999C30.1589 0.899999 33.6589 1.65 36.8922 3.15C40.1589 4.61666 42.9755 6.86666 45.3422 9.9C47.7422 12.9333 49.6089 16.7667 50.9422 21.4C52.3089 26.0333 52.9922 31.5167 52.9922 37.85ZM40.2422 37.85C40.2422 32.6167 39.8589 28.2833 39.0922 24.85C38.3255 21.4167 37.2922 18.6833 35.9922 16.65C34.7255 14.6167 33.2589 13.2 31.5922 12.4C29.9255 11.5667 28.1922 11.15 26.3922 11.15C24.6255 11.15 22.9089 11.5667 21.2422 12.4C19.6089 13.2 18.1589 14.6167 16.8922 16.65C15.6255 18.6833 14.6089 21.4167 13.8422 24.85C13.1089 28.2833 12.7422 32.6167 12.7422 37.85C12.7422 43.0833 13.1089 47.4167 13.8422 50.85C14.6089 54.2833 15.6255 57.0167 16.8922 59.05C18.1589 61.0833 19.6089 62.5167 21.2422 63.35C22.9089 64.15 24.6255 64.55 26.3922 64.55C28.1922 64.55 29.9255 64.15 31.5922 63.35C33.2589 62.5167 34.7255 61.0833 35.9922 59.05C37.2922 57.0167 38.3255 54.2833 39.0922 50.85C39.8589 47.4167 40.2422 43.0833 40.2422 37.85ZM107.25 64.75V74H67.25V64.75H81.9V22.6C81.9 20.9333 81.95 19.2167 82.05 17.45L71.65 26.15C71.05 26.6167 70.45 26.9167 69.85 27.05C69.2833 27.15 68.7333 27.15 68.2 27.05C67.7 26.95 67.25 26.7833 66.85 26.55C66.45 26.2833 66.15 26 65.95 25.7L62.05 20.35L84.1 1.6H94.25V64.75H107.25Z" fill="#101010" fill-opacity="0.08"/>
</svg>
